<svg width="32" height="32" viewBox="0 0 32 32" fill="none" xmlns="http://www.w3.org/2000/svg">
<path d="M3.94226 25.5861C3.69362 25.5861 3.45516 25.4873 3.27935 25.3115C3.10353 25.1357 3.00476 24.8973 3.00476 24.6486V6.76361C3.00476 4.18455 5.08476 2.08643 7.64164 2.08643H27.8544C28.1089 2.08676 28.3529 2.18802 28.5328 2.36799C28.7127 2.54796 28.8139 2.79195 28.8141 3.04643L28.8438 20.7499C28.8438 20.9985 28.7451 21.237 28.5692 21.4128C28.3934 21.5886 28.155 21.6874 27.9063 21.6874C27.6577 21.6874 27.4192 21.5886 27.2434 21.4128C27.0676 21.237 26.9688 20.9985 26.9688 20.7499L26.9407 3.95986H7.64164C6.11882 3.95986 4.87976 5.21705 4.87976 6.76205V24.6486C4.87976 24.8973 4.78099 25.1357 4.60517 25.3115C4.42936 25.4873 4.1909 25.5861 3.94226 25.5861Z" fill="currentColor"/>
<path d="M28.0313 29.9373H8.02507C5.25695 29.9373 3.00476 27.6651 3.00476 24.8723C3.00476 22.0795 5.25695 19.8076 8.02507 19.8076L27.9063 19.8123C28.155 19.8123 28.3934 19.9111 28.5692 20.0869C28.7451 20.2627 28.8438 20.5012 28.8438 20.7498C28.8438 20.9984 28.7451 21.2369 28.5692 21.4127C28.3934 21.5885 28.155 21.6873 27.9063 21.6873L8.02507 21.6826C6.29101 21.6826 4.88007 23.1136 4.88007 24.8723C4.88007 26.6311 6.2907 28.0623 8.02507 28.0623H28.0313C28.28 28.0623 28.5184 28.1611 28.6942 28.3369C28.8701 28.5127 28.9688 28.7512 28.9688 28.9998C28.9688 29.2484 28.8701 29.4869 28.6942 29.6627C28.5184 29.8385 28.28 29.9373 28.0313 29.9373Z" fill="currentColor"/>
<path d="M27.4689 25.8101H7.8833C7.63466 25.8101 7.3962 25.7113 7.22039 25.5355C7.04457 25.3597 6.9458 25.1212 6.9458 24.8726C6.9458 24.6239 7.04457 24.3855 7.22039 24.2096C7.3962 24.0338 7.63466 23.9351 7.8833 23.9351H27.4689C27.7176 23.9351 27.956 24.0338 28.1318 24.2096C28.3077 24.3855 28.4064 24.6239 28.4064 24.8726C28.4064 25.1212 28.3077 25.3597 28.1318 25.5355C27.956 25.7113 27.7176 25.8101 27.4689 25.8101Z" fill="currentColor" fill-opacity="0.6"/>
<path d="M9.53357 21.0352C9.28493 21.0352 9.04647 20.9364 8.87066 20.7606C8.69484 20.5848 8.59607 20.3463 8.59607 20.0977V3.02393C8.59607 2.77529 8.69484 2.53683 8.87066 2.36101C9.04647 2.1852 9.28493 2.08643 9.53357 2.08643C9.78221 2.08643 10.0207 2.1852 10.1965 2.36101C10.3723 2.53683 10.4711 2.77529 10.4711 3.02393V20.0977C10.4711 20.3463 10.3723 20.5848 10.1965 20.7606C10.0207 20.9364 9.78221 21.0352 9.53357 21.0352Z" fill="currentColor"/>
</svg>
